{
    "asset" : {
        "generator" : "Khronos glTF Blender I/O v3.3.32",
        "version" : "2.0"
    },
    "extensionsUsed" : [
        "KHR_materials_emissive_strength"
    ],
    "scene" : 0,
    "scenes" : [
        {
            "name" : "Scene",
            "nodes" : [
                0
            ]
        }
    ],
    "nodes" : [
        {
            "mesh" : 0,
            "name" : "Text",
            "rotation" : [
                0.6966763734817505,
                -0.008322232402861118,
                0.01334217470139265,
                0.7172132134437561
            ],
            "scale" : [
                1.0853867530822754,
                1,
                1
            ],
            "translation" : [
                -0.013111129403114319,
                0,
                0
            ]
        }
    ],
    "materials" : [
        {
            "doubleSided" : true,
            "emissiveFactor" : [
                0.6430685895185927,
                1,
                0.7747248016434601
            ],
            "extensions" : {
                "KHR_materials_emissive_strength" : {
                    "emissiveStrength" : 4.385499656200409
                }
            },
            "name" : "Material.001",
            "pbrMetallicRoughness" : {
                "baseColorFactor" : [
                    0,
                    0,
                    0,
                    1
                ]
            }
        }
    ],
    "meshes" : [
        {
            "name" : "Text",
            "primitives" : [
                {
                    "attributes" : {
                        "POSITION" : 0,
                        "NORMAL" : 1,
                        "TEXCOORD_0" : 2
                    },
                    "indices" : 3,
                    "material" : 0
                }
            ]
        }
    ],
    "accessors" : [
        {
            "bufferView" : 0,
            "componentType" : 5126,
            "count" : 14998,
            "max" : [
                6.134023189544678,
                0.08999998867511749,
                0.24000686407089233
            ],
            "min" : [
                0.03797975182533264,
                -0.08999998867511749,
                -0.7010062336921692
            ],
            "type" : "VEC3"
        },
        {
            "bufferView" : 1,
            "componentType" : 5126,
            "count" : 14998,
            "type" : "VEC3"
        },
        {
            "bufferView" : 2,
            "componentType" : 5126,
            "count" : 14998,
            "type" : "VEC2"
        },
        {
            "bufferView" : 3,
            "componentType" : 5123,
            "count" : 56580,
            "type" : "SCALAR"
        }
    ],
    "bufferViews" : [
        {
            "buffer" : 0,
            "byteLength" : 179976,
            "byteOffset" : 0,
            "target" : 34962
        },
        {
            "buffer" : 0,
            "byteLength" : 179976,
            "byteOffset" : 179976,
            "target" : 34962
        },
        {
            "buffer" : 0,
            "byteLength" : 119984,
            "byteOffset" : 359952,
            "target" : 34962
        },
        {
            "buffer" : 0,
            "byteLength" : 113160,
            "byteOffset" : 479936,
            "target" : 34963
        }
    ],
    "buffers" : [
        {
            "byteLength" : 593096,
            "uri" : "data:application/octet-stream;base64,"
        }
    ]
}
